<?xml version="1.0" encoding="UTF-8"?>
<svg version="1.1" xmlns="http://www.w3.org/2000/svg" width="512" height="512">
<path d="M0 0 C0.8156543 0.19867676 1.63130859 0.39735352 2.47167969 0.60205078 C28.33955978 7.05211054 51.80441494 17.81332186 73 34 C73.87140625 34.64710937 74.7428125 35.29421875 75.640625 35.9609375 C111.74285411 63.97892512 135.30353537 104.41018533 144 149 C144.18691406 149.95060303 144.37382812 150.90120605 144.56640625 151.88061523 C146.23424826 161.35827634 146.39960114 170.71912542 146.375 180.3125 C146.37412384 181.1487088 146.37324768 181.9849176 146.37234497 182.84646606 C146.21024536 229.89854231 128.68027258 274.01668625 96 308 C95.50838379 308.52271484 95.01676758 309.04542969 94.51025391 309.58398438 C65.11613987 340.74583147 22.94314263 361.80666975 -20 365 C-23.3 365 -26.6 365 -30 365 C-30 375.56 -30 386.12 -30 397 C-20.39675579 396.84221141 -20.39675579 396.84221141 -10.79443359 396.63964844 C-8.98966553 396.62466309 -8.98966553 396.62466309 -7.1484375 396.609375 C-5.92302246 396.58842773 -4.69760742 396.56748047 -3.43505859 396.54589844 C1.7399865 397.23001954 4.75710457 399.75710457 8.375 403.375 C10.18364494 407.40966948 10.1672709 409.84431787 10.1015625 414.2265625 C10.07956787 416.12656006 10.07956787 416.12656006 10.05712891 418.06494141 C10.03827637 419.03351074 10.01942383 420.00208008 10 421 C10.80029507 420.99631283 11.60059013 420.99262566 12.42513657 420.98882675 C31.8875099 420.90053461 51.34984333 420.8343191 70.81237411 420.79275131 C80.22427304 420.77211573 89.63603838 420.74397616 99.04785156 420.69824219 C107.25007027 420.65840485 115.45219225 420.63257443 123.65450501 420.62364602 C127.9986304 420.61842599 132.34247902 420.60613653 136.68651581 420.57707977 C140.77409515 420.54995957 144.86128333 420.54154804 148.94894409 420.54756927 C150.45018895 420.5464675 151.95144669 420.53849314 153.45261383 420.5231781 C155.50051952 420.50330745 157.54863439 420.5104385 159.59661865 420.51898193 C160.74332912 420.51529476 161.8900396 420.51160759 163.07149887 420.50780869 C166.63770732 421.10717906 167.80532601 422.18449144 170 425 C170.53125 427 170.53125 427 170.5 429 C170.5103125 429.66 170.520625 430.32 170.53125 431 C169.7475199 433.95051332 168.36431455 435.09710434 166 437 C163.07149887 437.49219131 163.07149887 437.49219131 159.59661865 437.48101807 C158.27851196 437.48651672 156.96040527 437.49201538 155.60235596 437.49768066 C154.14342897 437.48352482 152.68450567 437.46898559 151.22558594 437.45410156 C149.68806996 437.45297317 148.15055183 437.45360678 146.61303711 437.45587158 C142.4396647 437.45702 138.26675146 437.43349024 134.09348583 437.40557575 C129.73196422 437.38058332 125.37043227 437.37822181 121.0088501 437.37347412 C112.74987813 437.36103798 104.49111777 437.32820778 96.23223901 437.28807616 C86.82969482 437.24337828 77.42714056 437.22137641 68.02451658 437.20129442 C48.68289105 437.15947568 29.34146254 437.08911126 10 437 C10.02827881 438.452854 10.02827881 438.452854 10.05712891 439.93505859 C10.07179199 441.20172363 10.08645508 442.46838867 10.1015625 443.7734375 C10.12984131 445.6594165 10.12984131 445.6594165 10.15869141 447.58349609 C9.95856182 451.89213208 9.04956002 453.95043998 6 457 C1.36147928 460.66828269 -1.67932668 461.50338058 -7.5625 461.51757812 C-8.66126465 461.52809204 -8.66126465 461.52809204 -9.78222656 461.53881836 C-12.18854382 461.55633397 -14.59367209 461.54479954 -17 461.53125 C-18.68099186 461.53394679 -20.36198221 461.53783077 -22.04296875 461.54284668 C-25.56004743 461.54873298 -29.0767188 461.54020709 -32.59375 461.52148438 C-37.09302189 461.49869501 -41.59133927 461.5118228 -46.09057617 461.53577423 C-49.55996847 461.55025591 -53.02913594 461.54561544 -56.49853516 461.53526306 C-58.15706496 461.53260231 -59.81561544 461.53584257 -61.47412109 461.54518127 C-63.79579421 461.55538646 -66.11594011 461.53979279 -68.4375 461.51757812 C-69.75621094 461.51439575 -71.07492188 461.51121338 -72.43359375 461.50793457 C-77.67965882 460.7607797 -80.69805389 458.30194611 -84.375 454.625 C-86.18364494 450.59033052 -86.1672709 448.15568213 -86.1015625 443.7734375 C-86.08689941 442.50677246 -86.07223633 441.24010742 -86.05712891 439.93505859 C-86.03827637 438.96648926 -86.01942383 437.99791992 -86 437 C-86.80029507 437.00368717 -87.60059013 437.00737434 -88.42513657 437.01117325 C-107.8875099 437.09946539 -127.34984333 437.1656809 -146.81237411 437.20724869 C-156.22427304 437.22788427 -165.63603838 437.25602384 -175.04785156 437.30175781 C-183.25007027 437.34159515 -191.45219225 437.36742557 -199.65450501 437.37635398 C-203.9986304 437.38157401 -208.34247902 437.39386347 -212.68651581 437.42292023 C-216.77409515 437.45004043 -220.86128333 437.45845196 -224.94894409 437.45243073 C-226.45018895 437.4535325 -227.95144669 437.46150686 -229.45261383 437.4768219 C-231.50051952 437.49669255 -233.54863439 437.4895615 -235.59661865 437.48101807 C-236.74332912 437.48470524 -237.8900396 437.48839241 -239.07149887 437.49219131 C-242.63770732 436.89282094 -243.80532601 435.81550856 -246 433 C-246.53125 431 -246.53125 431 -246.5 429 C-246.5103125 428.34 -246.520625 427.68 -246.53125 427 C-245.7475199 424.04948668 -244.36431455 422.90289566 -242 421 C-239.07149887 420.50780869 -239.07149887 420.50780869 -235.59661865 420.51898193 C-234.27851196 420.51348328 -232.96040527 420.50798462 -231.60235596 420.50231934 C-230.14342897 420.51647518 -228.68450567 420.53101441 -227.22558594 420.54589844 C-225.68806996 420.54702683 -224.15055183 420.54639322 -222.61303711 420.54412842 C-218.4396647 420.54298 -214.26675146 420.56650976 -210.09348583 420.59442425 C-205.73196422 420.61941668 -201.37043227 420.62177819 -197.0088501 420.62652588 C-188.74987813 420.63896202 -180.49111777 420.67179222 -172.23223901 420.71192384 C-162.82969482 420.75662172 -153.42714056 420.77862359 -144.02451658 420.79870558 C-124.68289105 420.84052432 -105.34146254 420.91088874 -86 421 C-86.02827881 419.547146 -86.02827881 419.547146 -86.05712891 418.06494141 C-86.07179199 416.79827637 -86.08645508 415.53161133 -86.1015625 414.2265625 C-86.12984131 412.3405835 -86.12984131 412.3405835 -86.15869141 410.41650391 C-85.95856182 406.10786792 -85.04956002 404.04956002 -82 401 C-77.46757925 397.43664734 -74.59505939 396.51119557 -68.8515625 396.609375 C-67.04679443 396.62436035 -67.04679443 396.62436035 -65.20556641 396.63964844 C-63.69397949 396.67606445 -62.18239258 396.71248047 -60.625 396.75 C-55.79875 396.8325 -50.9725 396.915 -46 397 C-46 386.44 -46 375.88 -46 365 C-49.63 365 -53.26 365 -57 365 C-60.85103926 364.66585733 -64.62866621 364.03064216 -68.4375 363.375 C-69.99295532 363.10985596 -69.99295532 363.10985596 -71.57983398 362.83935547 C-107.3926042 356.40559582 -139.55549988 339.85413158 -166 315 C-166.53286621 314.50113281 -167.06573242 314.00226563 -167.61474609 313.48828125 C-192.96743827 289.56217587 -209.62877369 258.74296559 -218 225 C-218.21172852 224.15034668 -218.42345703 223.30069336 -218.64160156 222.42529297 C-224.89482949 195.87137186 -224.82121243 164.4171706 -218 138 C-217.79101074 137.16243164 -217.58202148 136.32486328 -217.36669922 135.46191406 C-208.61705668 101.2629367 -190.76361669 72.76361669 -166 48 C-165.11828125 47.06607422 -165.11828125 47.06607422 -164.21875 46.11328125 C-124.78918747 4.80185324 -54.96962708 -13.83563884 0 0 Z " fill="#1A2C3D" transform="translate(294,27)"/>
<path d="M0 0 C0.90320937 -0.00638882 1.80641873 -0.01277764 2.73699808 -0.01936007 C5.76436548 -0.03462405 8.79042713 -0.01413919 11.81774902 0.00622559 C13.98769057 0.00272482 16.15762956 -0.00293325 18.32756042 -0.0105896 C24.2222102 -0.02485349 30.1163944 -0.00775997 36.01099968 0.01569557 C42.17595128 0.03578125 48.34088311 0.0299262 54.50585938 0.02758789 C64.85941256 0.02764149 75.2127834 0.04741324 85.56628418 0.07946777 C97.54118647 0.11636166 109.51571763 0.12514358 121.49067736 0.11817026 C133.00396487 0.11186785 144.51717033 0.12261473 156.03044128 0.14213562 C160.93305123 0.15031635 165.83561927 0.15301792 170.73823547 0.15144348 C176.51010879 0.15056538 182.28175458 0.16476101 188.05356789 0.19067001 C190.17358612 0.19784015 192.29362854 0.19991138 194.41365623 0.19655228 C197.30425767 0.19284546 200.1941922 0.20755753 203.0847168 0.22705078 C203.92664156 0.22172286 204.76856633 0.21639493 205.63600397 0.21090555 C210.25135598 0.26472229 213.29324385 0.62547909 217.0423584 3.62145996 C218.61292045 6.76258407 218.19854656 10.12274027 218.20349121 13.57189941 C218.20845612 14.3932135 218.21342102 15.21452759 218.21853638 16.06072998 C218.23317452 18.78540883 218.2399631 21.51002945 218.2454834 24.23474121 C218.25123395 26.12562563 218.25699169 28.01651003 218.26275635 29.90739441 C218.27327135 33.87613192 218.2791106 37.84484915 218.28259277 41.81359863 C218.28807541 46.89803513 218.31209642 51.98220353 218.34056473 57.06655598 C218.35919373 60.97420533 218.36439687 64.8817902 218.36592865 68.78948021 C218.36895564 70.66376395 218.37698571 72.53804655 218.39011383 74.41228676 C218.40717815 77.03601041 218.40529309 79.65908021 218.39880371 82.28283691 C218.40801849 83.05653122 218.41723328 83.83022552 218.42672729 84.62736511 C218.39197647 89.11499709 217.91296978 92.10248055 215.0423584 95.62145996 C211.12565448 96.92702793 207.40115319 96.76607137 203.3184967 96.76190186 C202.41629062 96.76487298 201.51408454 96.7678441 200.58453888 96.77090526 C197.54906643 96.77960519 194.51363336 96.78110159 191.47814941 96.78259277 C189.3068839 96.78721995 187.13561921 96.79224447 184.96435547 96.79763794 C179.05742844 96.81077171 173.15051278 96.81720855 167.24357343 96.8216486 C163.55613313 96.82457712 159.86869597 96.82868146 156.18125725 96.83315277 C144.65251383 96.8468289 133.12377753 96.85649558 121.59502655 96.86035466 C108.2705926 96.86483896 94.94629291 96.8824036 81.62188774 96.91135526 C71.33225116 96.93293983 61.04264346 96.94305718 50.75298446 96.94439578 C44.6025769 96.94544592 38.45226559 96.95139828 32.30188179 96.96921539 C26.51941245 96.98564084 20.73711228 96.98787854 14.95462799 96.97907639 C12.82933793 96.9783031 10.70403898 96.98268686 8.57877159 96.99253464 C5.68337826 97.00516694 2.78859207 96.99942499 -0.10679626 96.98895264 C-0.95299811 96.99700904 -1.79919996 97.00506545 -2.67104429 97.01336598 C-5.99842773 96.9851076 -8.48502302 96.87487175 -11.44831944 95.28599167 C-14.73700831 91.65911397 -14.12525418 87.1596498 -14.1505127 82.55749512 C-14.15869019 81.736035 -14.16686768 80.91457489 -14.17529297 80.06822205 C-14.20011219 77.34899624 -14.21665221 74.62982244 -14.2310791 71.91052246 C-14.23640278 70.98174664 -14.24172646 70.05297081 -14.24721146 69.09605026 C-14.27392527 64.18200252 -14.29330764 59.26798005 -14.30773926 54.35388184 C-14.32109197 50.28561994 -14.34897141 46.21785803 -14.38977051 42.14978027 C-14.43903156 37.23794795 -14.46385191 32.32657001 -14.47096634 27.41450119 C-14.47768619 25.54297298 -14.49292732 23.67145519 -14.51685715 21.8000679 C-14.54844369 19.18091048 -14.54855594 16.5635114 -14.5411377 13.94421387 C-14.55754303 13.17209061 -14.57394836 12.39996735 -14.59085083 11.60444641 C-14.54834107 7.93658977 -14.16470306 5.90399296 -11.97949409 2.92230034 C-7.88583649 -0.19461312 -5.01192672 -0.07451798 0 0 Z " fill="#D1DAE3" transform="translate(149.9576416015625,159.3785400390625)"/>
<path d="M0 0 C4.8290734 2.76580927 8.66331543 6.51919641 12.55078125 10.4609375 C13.09347656 10.99332031 13.63617188 11.52570312 14.1953125 12.07421875 C22.87912619 21.33216888 28.20054313 33.41929687 33.05078125 44.9609375 C33.48422852 45.98759521 33.91767578 47.01425293 34.36425781 48.07202148 C36.47297294 53.23685163 38.11234904 57.88658511 38.55078125 63.4609375 C36.40628073 63.7824565 34.26004511 64.0923952 32.11328125 64.3984375 C30.32083984 64.65947266 30.32083984 64.65947266 28.4921875 64.92578125 C15.38732962 66.51010857 2.11104602 66.69270523 -11.07421875 66.7109375 C-11.85783783 66.71327393 -12.64145691 66.71561035 -13.44882202 66.71801758 C-29.57884872 66.7359387 -45.44628128 65.4122199 -61.44921875 63.4609375 C-60.87668176 57.53677005 -59.18376104 52.52225282 -56.94921875 47.0234375 C-56.59609619 46.15033936 -56.24297363 45.27724121 -55.87915039 44.37768555 C-50.97862393 32.57279972 -44.9932395 21.06096081 -36.44921875 11.4609375 C-35.82402344 10.75453125 -35.19882813 10.048125 -34.5546875 9.3203125 C-24.90746986 -0.95483054 -13.46149729 -5.90379819 0 0 Z " fill="#6480C5" transform="translate(267.44921875,42.5390625)"/>
<path d="M0 0 C-4.25367347 22.3549035 -16.18475695 48.50701278 -35.5546875 61.74609375 C-42.43946255 65.73023407 -49.35772624 67.45988901 -57.234375 65.421875 C-69.29682035 60.71666582 -78.48523311 49.21575639 -84.875 38.3125 C-85.29845703 37.590625 -85.72191406 36.86875 -86.15820312 36.125 C-89.39523141 30.42744197 -92.05969372 24.57799102 -94.5 18.5 C-94.82597168 17.68829346 -95.15194336 16.87658691 -95.48779297 16.0402832 C-97.52312797 10.7571768 -98.88971587 5.55142066 -100 0 C-67.34740763 -4.00959331 -32.54013526 -6.01992502 0 0 Z " fill="#6480C5" transform="translate(306,310)"/>
<path d="M0 0 C22.93063146 22.08134881 36.48399935 57.64468005 39 89 C39 92.63 39 96.26 39 100 C26.13 100 13.26 100 0 100 C-0.25 81.5 -0.25 81.5 -0.29785156 75.70898438 C-0.32725457 74.17054309 -0.35808626 72.63212816 -0.390625 71.09375 C-0.39231689 69.92440918 -0.39231689 69.92440918 -0.39404297 68.73144531 C-0.56170721 62.21298694 -2.47074252 57.06521919 -6.640625 52.01171875 C-7.17171875 51.57472656 -7.7028125 51.13773438 -8.25 50.6875 C-9.03117187 50.01267578 -9.03117187 50.01267578 -9.828125 49.32421875 C-18.40927112 44.09218901 -27.2765496 44.45613014 -37 44.3125 C-38.55341343 44.2792797 -40.10680017 44.24478578 -41.66015625 44.20898438 C-45.43995593 44.12461752 -49.2197009 44.05755671 -53 44 C-53.48287851 41.35479758 -53.96136624 38.7089179 -54.4375 36.0625 C-54.57220703 35.32708984 -54.70691406 34.59167969 -54.84570312 33.83398438 C-55.78831648 28.56914392 -56.45574122 23.3210543 -57 18 C-55.96230469 17.77828125 -54.92460937 17.5565625 -53.85546875 17.328125 C-41.75281056 14.58352575 -30.09074751 10.79950522 -18.375 6.75 C-17.18528091 6.33917175 -17.18528091 6.33917175 -15.9715271 5.92004395 C-13.69600184 5.13227503 -11.42178086 4.34091686 -9.1484375 3.546875 C-8.11060371 3.1846283 -8.11060371 3.1846283 -7.05180359 2.81506348 C-3.46489496 1.5551359 -3.46489496 1.5551359 0 0 Z " fill="#6480C5" transform="translate(384,100)"/>
<path d="M0 0 C12.87 0 25.74 0 39 0 C39 33.50481045 26.45726102 73.56826356 2.203125 97.890625 C1.11257813 98.93476563 1.11257813 98.93476563 0 100 C-0.67353516 99.75354736 -1.34707031 99.50709473 -2.04101562 99.25317383 C-20.19346982 92.62542449 -38.19046228 86.47727028 -57 82 C-56.20362422 73.23986645 -54.56886058 64.64710933 -53 56 C-52.02240723 55.99589111 -51.04481445 55.99178223 -50.03759766 55.98754883 C-46.36553209 55.96556331 -42.69450884 55.9110786 -39.02294922 55.84741211 C-37.44232268 55.82439953 -35.86154644 55.80987618 -34.28076172 55.80444336 C-24.23438237 55.76313946 -15.36051886 55.60890083 -7.4050293 48.59350586 C-1.85099494 42.51830734 -0.55274592 36.10107027 -0.48828125 28.22265625 C-0.47164429 27.50235229 -0.45500732 26.78204834 -0.43786621 26.03991699 C-0.38057367 23.38106685 -0.34794112 20.72173117 -0.3125 18.0625 C-0.209375 12.101875 -0.10625 6.14125 0 0 Z " fill="#6480C5" transform="translate(384,216)"/>
<path d="M0 0 C5.57084814 0.5702443 10.18994252 2.06467906 15.375 4.125 C29.54903037 9.56143888 44.2700345 13.38366116 59 17 C58.30710259 22.86608292 57.42848067 28.67739587 56.4375 34.5 C56.29892578 35.32242188 56.16035156 36.14484375 56.01757812 36.9921875 C55.67988697 38.99504541 55.34015815 40.99755959 55 43 C53.10894531 43.01401855 53.10894531 43.01401855 51.1796875 43.02832031 C46.47539722 43.06837372 41.77175037 43.13417501 37.06787109 43.20751953 C35.03703108 43.23564035 33.00608343 43.25689886 30.97509766 43.27099609 C28.04534145 43.29254898 25.11686735 43.33926222 22.1875 43.390625 C20.83857666 43.39246796 20.83857666 43.39246796 19.46240234 43.39434814 C12.42345082 43.55568766 7.09733787 45.28578232 1.7578125 49.96484375 C1.21898437 50.61582031 0.68015625 51.26679688 0.125 51.9375 C-0.42929688 52.58589844 -0.98359375 53.23429687 -1.5546875 53.90234375 C-5.10107958 59.04940469 -5.32722312 63.74598665 -5.4140625 69.80078125 C-5.43342865 70.63715622 -5.4527948 71.47353119 -5.4727478 72.33525085 C-5.53230192 74.9942317 -5.57883174 77.6532564 -5.625 80.3125 C-5.66320206 82.12046109 -5.70225509 83.92840442 -5.7421875 85.73632812 C-5.83957814 90.15745716 -5.91933725 94.57840775 -6 99 C-16.23 99 -26.46 99 -37 99 C-37 76.77042726 -31.91736986 57.2054957 -23 37 C-22.68546875 36.28424805 -22.3709375 35.56849609 -22.046875 34.83105469 C-16.33871802 22.09049668 -8.38248061 11.10034975 0 0 Z " fill="#6480C5" transform="translate(126,101)"/>
<path d="M0 0 C10.23 0 20.46 0 31 0 C31.01417969 2.55492187 31.02835938 5.10984375 31.04296875 7.7421875 C31.07368228 10.24785065 31.11274643 12.75325633 31.15258789 15.25878906 C31.17562246 16.98493177 31.1901291 18.71121213 31.19555664 20.4375 C31.14654686 35.89084804 31.14654686 35.89084804 38.81323242 48.91748047 C44.95049814 54.67544202 50.75927843 55.3113346 58.89453125 55.4140625 C60.31556404 55.44311172 60.31556404 55.44311172 61.76530457 55.4727478 C64.78094577 55.53236371 67.79662552 55.57885705 70.8125 55.625 C72.86134446 55.66319633 74.91017314 55.70224902 76.95898438 55.7421875 C81.97252762 55.83805053 86.98614603 55.92214807 92 56 C92.67245837 59.58227157 93.33695539 63.1659751 94 66.75 C94.19078125 67.76578125 94.3815625 68.7815625 94.578125 69.828125 C94.75859375 70.8078125 94.9390625 71.7875 95.125 72.796875 C95.29257813 73.69760742 95.46015625 74.59833984 95.6328125 75.52636719 C96 78 96 78 96 82 C95.18144531 82.18433594 94.36289063 82.36867188 93.51953125 82.55859375 C83.93854941 84.83016479 74.52958064 87.59144513 65.125 90.5 C63.27225464 91.06932251 63.27225464 91.06932251 61.38208008 91.65014648 C55.14983651 93.59517744 49.11319327 95.64625244 43.17919922 98.38085938 C40.38788909 99.17390917 38.74178369 98.91169062 36 98 C34.50537109 96.65917969 34.50537109 96.65917969 33.2734375 94.921875 C32.80446045 94.26654785 32.3354834 93.6112207 31.85229492 92.93603516 C31.12103394 91.85394775 31.12103394 91.85394775 30.375 90.75 C29.85719971 89.99638184 29.33939941 89.24276367 28.8059082 88.46630859 C14.74023075 67.49068809 5.71656553 44.74244949 1.3125 19.9375 C1.11479004 18.85746704 1.11479004 18.85746704 0.91308594 17.75561523 C-0.1127237 11.62356857 0 6.44020301 0 0 Z " fill="#6480C5" transform="translate(89,216)"/>
<path d="M0 0 C0.72968994 -0.0103125 1.45937988 -0.020625 2.21118164 -0.03125 C2.9768042 -0.00804687 3.74242676 0.01515625 4.53125 0.0390625 C5.32716553 0.05453125 6.12308105 0.07 6.94311523 0.0859375 C17.65747692 0.53411995 26.4362099 4.0252482 34.16015625 11.55078125 C42.41498018 20.87407926 43.87281517 30.53926368 43.2265625 42.65380859 C42.39903762 51.17110843 37.33033829 58.58229076 31.25390625 64.3515625 C23.19358787 70.94486997 14.81767158 73.00536144 4.59375 73.1015625 C3.81209473 73.11171387 3.03043945 73.12186523 2.22509766 73.13232422 C-1.05829681 73.08178856 -3.52897821 72.90235906 -6.44140625 71.32421875 C-9.34106538 68.17241535 -9.11225413 64.87957304 -9.16162109 60.80322266 C-9.17768402 59.59832184 -9.19374695 58.39342102 -9.21029663 57.15200806 C-9.25471854 51.65147107 -9.29623295 46.15106426 -9.31884766 40.65039062 C-9.33219436 37.7460994 -9.36006326 34.84250958 -9.40087891 31.93847656 C-9.4502245 28.42712798 -9.47497009 24.91641607 -9.48207474 21.40473557 C-9.49203493 19.42101145 -9.52627084 17.43745717 -9.56088257 15.45401001 C-9.537311 5.43659506 -9.537311 5.43659506 -6.68408203 2.34765625 C-4.15959094 0.78239006 -2.91238763 0.02545793 0 0 Z " fill="#1B2D3E" transform="translate(168.96875,171.3359375)"/>
<path d="M0 0 C7.66312755 2.55437585 11.5920651 11.0995057 15.625 17.6875 C19.10467489 23.32804854 22.64488464 28.83941591 26.5625 34.1875 C26.56660889 33.33518799 26.57071777 32.48287598 26.57495117 31.60473633 C26.6020042 28.42654652 26.6511643 25.24966708 26.71508789 22.07202148 C26.73820978 20.69974569 26.75265003 19.32729391 26.75805664 17.95483398 C26.76738665 15.97615529 26.81107019 13.99773376 26.85546875 12.01953125 C26.87903442 10.23639526 26.87903442 10.23639526 26.90307617 8.41723633 C27.74571341 4.29015448 29.30910444 2.78222344 32.5625 0.1875 C36.35770267 -0.5241005 37.93209459 -0.2055195 41.20956421 1.83778381 C44.19696947 4.82110131 44.19434096 6.1793594 44.20947266 10.34545898 C44.23311386 12.21275917 44.23311386 12.21275917 44.25723267 14.11778259 C44.24828184 15.47306198 44.23802659 16.82833329 44.2265625 18.18359375 C44.22993247 19.57837853 44.2347866 20.97316043 44.24105835 22.36793518 C44.24842387 25.28927608 44.23773796 28.20985172 44.21435547 31.13110352 C44.18589215 34.86854072 44.2022549 38.60418077 44.23221779 42.34155178 C44.25032335 45.22163832 44.24451785 48.10130186 44.23157883 50.98140144 C44.22825233 52.35885902 44.23230537 53.73635548 44.24397659 55.11376762 C44.25673193 57.04255269 44.23382921 58.97147303 44.20947266 60.90014648 C44.20549469 61.99616684 44.20151672 63.09218719 44.19741821 64.22142029 C43.35421492 68.16052321 41.6385948 69.67252049 38.5625 72.1875 C35.6875 73 35.6875 73 32.5625 72.1875 C26.61317154 66.79379731 22.49272475 59.70548293 18.3125 52.9375 C17.10032965 50.99393573 15.88683852 49.05119443 14.671875 47.109375 C14.14561523 46.25956055 13.61935547 45.40974609 13.07714844 44.53417969 C11.65980205 42.33825231 10.15841569 40.25610276 8.5625 38.1875 C8.5531543 39.00951904 8.54380859 39.83153809 8.53417969 40.6784668 C8.48042129 44.41124962 8.39678169 48.14278681 8.3125 51.875 C8.29123047 53.81536133 8.29123047 53.81536133 8.26953125 55.79492188 C8.23730469 57.04208984 8.20507812 58.28925781 8.171875 59.57421875 C8.15092773 60.72108154 8.12998047 61.86794434 8.10839844 63.04956055 C7.4506358 66.83051904 6.26947096 68.5051213 3.5625 71.1875 C0.125 72.3125 0.125 72.3125 -3.4375 72.1875 C-6.57716218 69.71196759 -8.22513596 68.17957843 -9.07241821 64.22142029 C-9.07639618 63.12539993 -9.08037415 62.02937958 -9.08447266 60.90014648 C-9.10023346 59.65212753 -9.11599426 58.40410858 -9.13223267 57.11827087 C-9.12328353 55.76503614 -9.1130287 54.4118095 -9.1015625 53.05859375 C-9.10493318 51.66284259 -9.1097879 50.2670943 -9.11605835 48.87135315 C-9.12341567 45.95179184 -9.11276118 43.03299731 -9.08935547 40.11352539 C-9.06083966 36.37489918 -9.07729334 32.63806543 -9.10721779 28.89950466 C-9.12530035 26.01946035 -9.1195293 23.13983999 -9.10657883 20.25978279 C-9.10324872 18.88149871 -9.10731813 17.50317586 -9.11897659 16.12493706 C-9.13169989 14.19845205 -9.10886176 12.27183162 -9.08447266 10.34545898 C-9.08049469 9.25023422 -9.07651672 8.15500946 -9.07241821 7.02659607 C-8.4375 4.1875 -8.4375 4.1875 -6.11190796 1.81434631 C-3.4375 0.1875 -3.4375 0.1875 0 0 Z " fill="#1C2E3F" transform="translate(234.4375,171.8125)"/>
<path d="M0 0 C1.31162109 -0.00386719 2.62324219 -0.00773438 3.97460938 -0.01171875 C4.65048096 -0.00543457 5.32635254 0.00084961 6.02270508 0.00732422 C8.0880716 0.02342369 10.15148966 0.00742492 12.21679688 -0.01171875 C14.18229492 -0.00591797 14.18229492 -0.00591797 16.1875 0 C17.97619507 0.00507568 17.97619507 0.00507568 19.80102539 0.01025391 C23.31777105 0.43338108 25.21116949 1.28783646 28.02734375 3.3984375 C29.43192112 6.20759224 29.27629532 8.28654284 29.02734375 11.3984375 C27.2474997 14.5343532 26.50426168 15.23946486 23.02734375 16.3984375 C20.98668203 16.52552084 18.94257129 16.60017473 16.8984375 16.64453125 C15.69896484 16.67740234 14.49949219 16.71027344 13.26367188 16.74414062 C10.72730701 16.80543068 8.19084212 16.86271047 5.65429688 16.91601562 C4.45611328 16.95017578 3.25792969 16.98433594 2.0234375 17.01953125 C0.92185303 17.0445874 -0.17973145 17.06964355 -1.31469727 17.09545898 C-4.12575572 17.1365548 -4.12575572 17.1365548 -5.97265625 19.3984375 C-6.30598958 22.3984375 -6.30598958 22.3984375 -5.97265625 25.3984375 C-3.10785865 28.2632351 -0.18369218 27.68738507 3.65234375 27.7734375 C12.49792663 28.18027745 17.74992853 29.69483756 23.90234375 36.3359375 C28.2655651 41.75269294 29.51757397 45.89620585 29.33203125 52.84375 C28.47600457 60.02120445 24.51599082 64.34556657 19.22265625 68.953125 C12.69486696 73.25077987 5.50556505 72.77083249 -2.02294922 72.76904297 C-4.09945231 72.7734413 -6.17386852 72.80989057 -8.25 72.84765625 C-9.56355469 72.85152344 -10.87710937 72.85539062 -12.23046875 72.859375 C-14.02701904 72.87170166 -14.02701904 72.87170166 -15.85986328 72.88427734 C-19.56238678 72.30639328 -20.71868069 71.32976651 -22.97265625 68.3984375 C-23.50390625 66.3984375 -23.50390625 66.3984375 -23.47265625 64.3984375 C-23.48296875 63.7384375 -23.49328125 63.0784375 -23.50390625 62.3984375 C-22.72021123 59.44805625 -21.33641226 58.30197166 -18.97265625 56.3984375 C-15.99584961 55.90014648 -15.99584961 55.90014648 -12.5625 55.89453125 C-11.32564453 55.87583984 -10.08878906 55.85714844 -8.81445312 55.83789062 C-7.52603516 55.83724609 -6.23761719 55.83660156 -4.91015625 55.8359375 C-2.35669045 55.82702266 0.19677187 55.80549221 2.75 55.76953125 C3.88187744 55.76880615 5.01375488 55.76808105 6.17993164 55.76733398 C9.01851913 55.62246469 9.01851913 55.62246469 10.93139648 54.07055664 C12.33332108 52.29466114 12.33332108 52.29466114 11.83984375 49.2734375 C11.57171875 48.3246875 11.30359375 47.3759375 11.02734375 46.3984375 C8.53436431 45.15194778 6.36276883 45.27456471 3.6184082 45.21020508 C-4.8448603 44.96746537 -11.17062867 43.92708232 -17.55078125 37.91015625 C-22.85192479 32.01491904 -23.47675414 26.29111828 -23.35546875 18.6328125 C-22.64556993 12.63489186 -19.80676559 9.13848995 -15.53515625 5.0859375 C-10.26654547 1.61636455 -6.36589337 0.01804708 0 0 Z " fill="#1C2E3F" transform="translate(314.97265625,171.6015625)"/>
<path d="M0 0 C1.41679974 0.12348255 2.83342321 0.2489855 4.25 0.375 C5.23105713 0.46177002 6.21211426 0.54854004 7.22290039 0.63793945 C9.89604321 0.89417827 12.5570105 1.17538602 15.22338867 1.48754883 C28.19120221 2.96588695 41.01795537 3.35490491 54.0625 3.3125 C55.08349792 3.31233887 56.10449585 3.31217773 57.15643311 3.31201172 C72.50765215 3.29520721 87.50972894 2.64455337 102.69970703 0.27539062 C105.1532581 -0.01834803 107.53127201 -0.04595018 110 0 C110.677219 2.51840815 111.34191174 5.03908724 112 7.5625 C112.19078125 8.26697266 112.3815625 8.97144531 112.578125 9.69726562 C112.75859375 10.39658203 112.9390625 11.09589844 113.125 11.81640625 C113.29257812 12.45006104 113.46015625 13.08371582 113.6328125 13.73657227 C114.12766047 16.78692834 114 19.90976592 114 23 C75.06 23 36.12 23 -4 23 C-3.38681207 16.86812073 -2.86438614 11.70662162 -1.4375 5.875 C-1.16808594 4.75867188 -0.89867187 3.64234375 -0.62109375 2.4921875 C-0.41613281 1.66976562 -0.21117187 0.84734375 0 0 Z " fill="#6480C4" transform="translate(201,121)"/>
<path d="M0 0 C38.94 0 77.88 0 118 0 C115.75 15.75 115.75 15.75 114 23 C108.28923958 22.61039695 102.5877607 22.21300078 96.90600586 21.51245117 C84.21136116 19.96671439 71.65438284 19.64628574 58.875 19.6875 C57.33442429 19.6877417 57.33442429 19.6877417 55.76272583 19.68798828 C41.00276948 19.70407778 26.67525464 20.36066657 12.08154297 22.71875 C9.37580868 23.08433831 6.72513127 23.10739434 4 23 C3.3267344 20.10555905 2.66119596 17.20969987 2 14.3125 C1.80921875 13.49587891 1.6184375 12.67925781 1.421875 11.83789062 C1.24140625 11.04189453 1.0609375 10.24589844 0.875 9.42578125 C0.70742187 8.69786377 0.53984375 7.96994629 0.3671875 7.2199707 C0 5 0 5 0 0 Z " fill="#6480C4" transform="translate(197,272)"/>
<path d="M0 0 C21.12 0 42.24 0 64 0 C64 10.56 64 21.12 64 32 C42.88 32 21.76 32 0 32 C0 21.44 0 10.88 0 0 Z " fill="#EDAE65" transform="translate(224,440)"/>
<path d="M0 0 C0 3.68656321 -0.83885773 4.32918061 -3.1640625 7.09375 C-6.82155018 11.65411674 -9.68289502 16.3209364 -12.375 21.5 C-12.83688721 22.38131592 -13.29877441 23.26263184 -13.7746582 24.1706543 C-19.27379467 35.01719442 -23.17302873 46.47893812 -27 58 C-35.70476706 57.60518575 -43.60180052 55.7077889 -51.9375 53.25 C-53.12279297 52.91484375 -54.30808594 52.5796875 -55.52929688 52.234375 C-63.26483718 49.99391132 -70.63827502 47.26287982 -78 44 C-74.18361837 39.03572234 -69.99969392 35.3712669 -65 31.625 C-64.245979 31.05628174 -63.49195801 30.48756348 -62.71508789 29.90161133 C-43.94401557 15.91029304 -22.79995035 5.50676767 0 0 Z " fill="#637FC3" transform="translate(217,44)"/>
<path d="M0 0 C0.34611328 0.95700806 0.34611328 0.95700806 0.69921875 1.93334961 C10.07992052 27.90797467 10.07992052 27.90797467 24.21484375 51.4609375 C26 54 26 54 27 57 C-2.58960463 53.33866003 -29.3671505 34.33662525 -51 15 C-48.59067244 12.59067244 -46.7203431 12.0628577 -43.49609375 10.9765625 C-42.37025879 10.59685303 -41.24442383 10.21714355 -40.08447266 9.82592773 C-38.88097168 9.42962158 -37.6774707 9.03331543 -36.4375 8.625 C-35.21853027 8.221604 -33.99956055 7.81820801 -32.74365234 7.40258789 C-9.57981908 -0.14564258 -9.57981908 -0.14564258 0 0 Z " fill="#637FC3" transform="translate(190,314)"/>
<path d="M0 0 C6.79266088 -0.4761665 12.79721524 1.26457657 19.3125 3.0625 C20.4557373 3.37324463 21.59897461 3.68398926 22.77685547 4.00415039 C32.4598425 6.70607959 41.75461081 10.07011234 51 14 C29.62511729 35.48738209 2.94878564 51.15383294 -27 57 C-25.71965859 54.34778608 -24.32911188 51.87208885 -22.71484375 49.41015625 C-12.7716216 33.92688111 -5.82500517 17.41647273 0 0 Z " fill="#647FC4" transform="translate(322,314)"/>
<path d="M0 0 C29.68562139 4.13461706 56.21871211 22.53069239 78 42 C74.64761674 45.35238326 70.04851416 46.28948169 65.625 47.8125 C64.60092041 48.16634766 63.57684082 48.52019531 62.52172852 48.88476562 C55.72286542 51.18722586 48.89735051 53.24330381 41.9375 55 C41.1242627 55.20729736 40.31102539 55.41459473 39.47314453 55.62817383 C35.22515165 56.65196424 31.404197 57.22549489 27 57 C26.79955078 56.42258057 26.59910156 55.84516113 26.39257812 55.25024414 C20.23565625 37.62937106 13.77366104 21.29947105 3.00390625 5.9765625 C1 3 1 3 0 0 Z " fill="#6480C4" transform="translate(295,45)"/>
<path d="M0 0 C6.66007624 0 8.99485965 1.03502257 14 5 C18.56825498 9.60201056 20.16136422 12.77958813 20.25 19.25 C20.17706773 25.27685736 19.77186306 29.17338409 15.41796875 33.61328125 C10.420217 38.17549907 6.91086521 40 0 40 C0 26.8 0 13.6 0 0 Z " fill="#D0DAE3" transform="translate(176,188)"/>
</svg>
